<svg xmlns="http://www.w3.org/2000/svg" viewBox="0 0 111.35 84.32"><defs><style>.cls-1{fill:#a2deaf;}.cls-1,.cls-2,.cls-3,.cls-4{fill-rule:evenodd;}.cls-2{fill:#114e4e;}.cls-3{fill:#fff;}.cls-4{fill:#e17334;}</style></defs><g id="Capa_2" data-name="Capa 2"><g id="Capa_1-2" data-name="Capa 1"><g id="Tablet_" data-name="Tablet+"><g id="_00---App---Tablet_" data-name="00---App---Tablet+"><g id="Group-4"><g id="Tarjetas-molonas"><g id="Group-2"><g id="Group"><path id="Path" class="cls-1" d="M101,1.64a10,10,0,0,1,7.32,3,10,10,0,0,1,3,7.32l0,62A10.29,10.29,0,0,1,101,84.25l-89.49.07a10,10,0,0,1-7.32-3A10,10,0,0,1,1.2,74l-.05-62a10,10,0,0,1,3-7.32,10,10,0,0,1,7.32-3Z"/><path id="Path-Copy" class="cls-2" d="M99.81,0a10,10,0,0,1,7.32,3,9.93,9.93,0,0,1,3,7.31l0,62A10.29,10.29,0,0,1,99.88,82.61l-89.49.08a10,10,0,0,1-7.32-3,10,10,0,0,1-3-7.31l0-62A10,10,0,0,1,3,3.09a10,10,0,0,1,7.31-3Z"/><path id="Path-2" data-name="Path" class="cls-3" d="M103.31,72.28l0-62a3.32,3.32,0,0,0-3.44-3.44L10.32,7A3.32,3.32,0,0,0,6.88,10.4l.06,62a3.3,3.3,0,0,0,3.44,3.44l89.5-.07a3.38,3.38,0,0,0,2.47-1A3.34,3.34,0,0,0,103.31,72.28Z"/><path id="Combined-Shape" class="cls-4" d="M71.46,55.1a2.56,2.56,0,0,1-2.58-2.58V50.8a2.58,2.58,0,0,1,2.58-2.59l22.37,0a2.58,2.58,0,0,1,2.58,2.58V52.5a2.58,2.58,0,0,1-2.58,2.58Zm0-13.77a2.56,2.56,0,0,1-2.58-2.58V37a2.46,2.46,0,0,1,.76-1.83,2.53,2.53,0,0,1,1.82-.76H93.82a2.52,2.52,0,0,1,1.83.75A2.49,2.49,0,0,1,96.4,37v1.72a2.52,2.52,0,0,1-.75,1.83,2.49,2.49,0,0,1-1.83.75Zm0-13.77a2.49,2.49,0,0,1-1.83-.75A2.54,2.54,0,0,1,68.85,25V23.26a2.49,2.49,0,0,1,.75-1.83,2.52,2.52,0,0,1,1.83-.75l22.38,0a2.52,2.52,0,0,1,1.83.75,2.49,2.49,0,0,1,.75,1.83V25a2.56,2.56,0,0,1-2.58,2.58Z"/><path id="Combined-Shape-2" data-name="Combined-Shape" class="cls-1" d="M51.23,41.78a14.82,14.82,0,0,1,8.61,6.66,16.34,16.34,0,0,1,2.16,8v3a9.54,9.54,0,0,1-9.46,9.47l-29.26,0a9.1,9.1,0,0,1-6.67-2.8,9.1,9.1,0,0,1-2.8-6.66v-3a16.17,16.17,0,0,1,2.14-8,14.86,14.86,0,0,1,8.6-6.67A16.53,16.53,0,0,1,20.67,31a16.56,16.56,0,0,1,5-12.15,16.51,16.51,0,0,1,12.15-5.07A16.6,16.6,0,0,1,50,18.87,16.54,16.54,0,0,1,55.09,31,16.55,16.55,0,0,1,51.23,41.78ZM37.87,20.7A10.29,10.29,0,0,0,27.55,31,10.29,10.29,0,0,0,37.89,41.36,10.29,10.29,0,0,0,48.21,31,10.29,10.29,0,0,0,37.87,20.7ZM55.11,59.41v-3a8.1,8.1,0,0,0-1.72-5,8.76,8.76,0,0,0-4.52-3.12L44.35,47a16.86,16.86,0,0,1-12.91,0l-4.52,1.29a8.81,8.81,0,0,0-4.51,3.12,8.15,8.15,0,0,0-1.72,5.06v3A2.58,2.58,0,0,0,23.28,62l29.26,0a2.58,2.58,0,0,0,2.57-2.59Z"/></g></g></g></g></g></g></g></g></svg>